<svg xmlns="http://www.w3.org/2000/svg" viewBox="0 0 100 100">
  <!-- Background Shield -->
  <path d="M50 5 L85 25 L85 65 C85 85 50 95 50 95 C50 95 15 85 15 65 L15 25 L50 5 Z" fill="#FF9933" />
  <path d="M50 10 L80 28 L80 65 C80 80 50 90 50 90 C50 90 20 80 20 65 L20 28 L50 10 Z" fill="#FFFFFF" />
  
  <!-- Stylized Basket/Kart -->
  <path d="M30 40 H70 L65 70 H35 L30 40 Z" fill="#138808" opacity="0.8" />
  <path d="M35 40 V70 M42 40 V70 M50 40 V70 M58 40 V70 M65 40 V70" stroke="#FFFFFF" stroke-width="1" />
  
  <!-- Artistic Wheel (Chakra) -->
  <circle cx="50" cy="30" r="12" stroke="#000080" stroke-width="2" fill="none" />
  <circle cx="50" cy="30" r="2" fill="#000080" />
  <g stroke="#000080" stroke-width="1">
    <line x1="50" y1="18" x2="50" y2="42" />
    <line x1="38" y1="30" x2="62" y2="30" />
    <line x1="41.5" y1="21.5" x2="58.5" y2="38.5" />
    <line x1="41.5" y1="38.5" x2="58.5" y2="21.5" />
  </g>
  
  <!-- Text Label -->
  <text x="50" y="82" text-anchor="middle" font-family="serif" font-weight="bold" font-size="10" fill="#138808">BENGAL</text>
</svg>
